<?xml version="1.0" encoding="utf-8"?>
<!-- Generator: Adobe Illustrator 26.3.1, SVG Export Plug-In . SVG Version: 6.00 Build 0)  -->
<svg version="1.1" id="CALCULATOR-LIGHT-MODE" xmlns="http://www.w3.org/2000/svg" xmlns:xlink="http://www.w3.org/1999/xlink"
	 x="0px" y="0px" viewBox="0 0 512 512" style="enable-background:new 0 0 512 512;" xml:space="preserve">
<style type="text/css">

		.st0{fill:#FDFDFD;}
		.st1{fill:#1E1E1E;}
		.st2{fill:#FF7F50;}
		.st3{fill:#383838;}

	@media (prefers-color-scheme: dark) {
		.st0{fill:#1E1E1E;}
		.st1{fill:#FDFDFD;}
		.st2{fill:#FF7F50;}
		.st3{fill:#E0E0E0;}
	}
</style>
<g id="ICON-LIGHT-MODE">
	<circle id="CIRCLE" class="st0" cx="256" cy="256" r="256"/>
	<path id="CALCULATOR_00000146482673129647364030000017012850689124454075_" class="st1" d="M355.3,438.1H156.7
		c-16.9,0-30.6-13.7-30.6-30.6v-303c0-16.9,13.7-30.6,30.6-30.6h198.7c16.9,0,30.6,13.7,30.6,30.6v302.9
		C386,424.4,372.3,438.1,355.3,438.1z"/>
	<path id="DISPLAY" class="st0" d="M346.3,169.6H165.7c-3.3,0-6-2.7-6-6v-42.1c0-3.3,2.7-6,6-6h180.5c3.3,0,6,2.7,6,6v42.1
		C352.3,166.9,349.6,169.6,346.3,169.6z"/>
	<g id="BUTTONS-TOP-AC-ROW">
		<path class="st2" d="M282.7,242.6h-46.5c-3.3,0-6-2.7-6-6v-28.8c0-3.3,2.7-6,6-6h46.5c3.3,0,6,2.7,6,6v28.8
			C288.7,239.9,286,242.6,282.7,242.6z"/>
		<path class="st2" d="M212.2,242.6h-46.5c-3.3,0-6-2.7-6-6v-28.8c0-3.3,2.7-6,6-6h46.5c3.3,0,6,2.7,6,6v28.8
			C218.2,239.9,215.5,242.6,212.2,242.6z"/>
		<path class="st3" d="M347.7,242.6h-28.8c-3.3,0-6-2.7-6-6v-28.8c0-3.3,2.7-6,6-6h28.8c3.3,0,6,2.7,6,6v28.8
			C353.8,239.9,351.1,242.6,347.7,242.6z"/>
	</g>
	<g id="BUTTONS-TOP-ROW">
		<path class="st3" d="M193.1,295.9h-28.8c-3.3,0-6-2.7-6-6V261c0-3.3,2.7-6,6-6h28.8c3.3,0,6,2.7,6,6v28.8
			C199.1,293.2,196.4,295.9,193.1,295.9z"/>
		<path class="st3" d="M244.7,295.9h-28.8c-3.3,0-6-2.7-6-6V261c0-3.3,2.7-6,6-6h28.8c3.3,0,6,2.7,6,6v28.8
			C250.7,293.2,248,295.9,244.7,295.9z"/>
		<path class="st3" d="M296.2,295.9h-28.8c-3.3,0-6-2.7-6-6V261c0-3.3,2.7-6,6-6h28.8c3.3,0,6,2.7,6,6v28.8
			C302.2,293.2,299.5,295.9,296.2,295.9z"/>
		<path class="st3" d="M347.7,295.9h-28.8c-3.3,0-6-2.7-6-6V261c0-3.3,2.7-6,6-6h28.8c3.3,0,6,2.7,6,6v28.8
			C353.8,293.2,351.1,295.9,347.7,295.9z"/>
	</g>
	<g id="BUTTONS-MIDDLE-ROW">
		<path class="st3" d="M193.1,349.3h-28.8c-3.3,0-6-2.7-6-6v-28.8c0-3.3,2.7-6,6-6h28.8c3.3,0,6,2.7,6,6v28.8
			C199.1,346.6,196.4,349.3,193.1,349.3z"/>
		<path class="st3" d="M244.7,349.3h-28.8c-3.3,0-6-2.7-6-6v-28.8c0-3.3,2.7-6,6-6h28.8c3.3,0,6,2.7,6,6v28.8
			C250.7,346.6,248,349.3,244.7,349.3z"/>
		<path class="st3" d="M296.2,349.3h-28.8c-3.3,0-6-2.7-6-6v-28.8c0-3.3,2.7-6,6-6h28.8c3.3,0,6,2.7,6,6v28.8
			C302.2,346.6,299.5,349.3,296.2,349.3z"/>
		<path class="st3" d="M347.7,349.3h-28.8c-3.3,0-6-2.7-6-6v-28.8c0-3.3,2.7-6,6-6h28.8c3.3,0,6,2.7,6,6v28.8
			C353.8,346.6,351.1,349.3,347.7,349.3z"/>
	</g>
	<g id="BUTTONS-LAST-ROW">
		<path class="st3" d="M193.1,402.6h-28.8c-3.3,0-6-2.7-6-6v-28.8c0-3.3,2.7-6,6-6h28.8c3.3,0,6,2.7,6,6v28.8
			C199.1,399.9,196.4,402.6,193.1,402.6z"/>
		<path class="st3" d="M244.7,402.6h-28.8c-3.3,0-6-2.7-6-6v-28.8c0-3.3,2.7-6,6-6h28.8c3.3,0,6,2.7,6,6v28.8
			C250.7,399.9,248,402.6,244.7,402.6z"/>
		<path class="st3" d="M296.2,402.6h-28.8c-3.3,0-6-2.7-6-6v-28.8c0-3.3,2.7-6,6-6h28.8c3.3,0,6,2.7,6,6v28.8
			C302.2,399.9,299.5,402.6,296.2,402.6z"/>
		<path class="st3" d="M347.7,402.6h-28.8c-3.3,0-6-2.7-6-6v-28.8c0-3.3,2.7-6,6-6h28.8c3.3,0,6,2.7,6,6v28.8
			C353.8,399.9,351.1,402.6,347.7,402.6z"/>
	</g>
</g>
</svg>
