<?xml version="1.0" encoding="utf-8"?>
<!-- Generator: Adobe Illustrator 26.3.1, SVG Export Plug-In . SVG Version: 6.00 Build 0)  -->
<svg version="1.1" id="Layer_2" xmlns="http://www.w3.org/2000/svg" xmlns:xlink="http://www.w3.org/1999/xlink" x="0px" y="0px"
	 viewBox="0 0 320 280" style="enable-background:new 0 0 320 280;" xml:space="preserve">
<style type="text/css">
	.st0{display:none;fill:#1E1E1E;}
	.st1{fill:#FDFDFD;}
</style>
<path class="st0" d="M271.4,55.3c-1.5-1.9-3.1-3.9-4.7-5.9C241.2,19.5,204.2,1.5,165.2,0.1c-0.5,0-1,0-1.6-0.1
	C160.4,0,157.2,0,154,0.1c-0.6,0-1.2,0-1.7,0.1c-38,2.1-74.1,20-98.9,49.2c-1.8,2.1-3.3,4-4.7,5.9C29.9,79.8,20,109.1,20,140
	s9.9,60.2,28.6,84.7c1.4,1.9,3,3.8,4.7,5.9c24.8,29.2,60.9,47.1,98.9,49.2c0.6,0,1.2,0.1,1.8,0.1c2,0.1,4,0.1,6,0.1
	c1.2,0,2.4,0,3.7,0c0.5,0,1,0,1.5-0.1c39-1.4,76-19.4,101.5-49.3c1.7-2,3.3-3.9,4.7-5.9c18.7-24.6,28.6-53.8,28.6-84.7
	C300,109.1,290.1,79.8,271.4,55.3z M190,254.7c9.6-13.4,17.6-28.3,23.5-44.3c11.4,3.3,21.8,7.6,30.8,12.7
	C229.3,238.6,210.5,249.4,190,254.7z M160,203.2c11.1,0,21.9,0.9,32.4,2.5c-7.8,20.1-19.3,38.2-33.4,52.8c-0.1,0-0.1,0-0.2,0
	c-14.1-14.5-25.4-32.5-33.3-52.4C136.6,204.2,148.2,203.2,160,203.2z M75.7,223.2c8.5-4.8,18.2-8.9,28.7-12.1
	c5.8,15.4,13.5,29.8,22.7,42.8C107.7,248.3,90,237.8,75.7,223.2z M127.1,26.1c-9.3,13-16.9,27.4-22.7,42.8
	c-10.5-3.2-20.3-7.3-28.7-12.1C90,42.2,107.7,31.7,127.1,26.1z M158.9,21.4c14.2,14.6,25.6,32.7,33.4,52.8
	c-10.5,1.7-21.3,2.5-32.4,2.5c-11.8,0-23.4-1-34.6-2.9c7.8-19.9,19.2-37.9,33.3-52.4C158.8,21.4,158.9,21.4,158.9,21.4z M244.3,56.8
	c-9,5.1-19.5,9.5-30.8,12.7c-5.9-15.9-13.9-30.9-23.5-44.3C210.5,30.6,229.3,41.4,244.3,56.8z M113.4,129.3
	c0.7-11.9,2.5-23.6,5.4-34.8c13.3,2.5,27.1,3.8,41.2,3.8c13.3,0,26.3-1.1,38.9-3.4c2.8,11.2,4.6,22.7,5.3,34.4H113.4z M204.2,150.7
	c-0.7,11.7-2.4,23.2-5.3,34.4c-12.6-2.2-25.7-3.4-38.9-3.4c-14.1,0-27.9,1.3-41.2,3.8c-2.9-11.3-4.7-23-5.4-34.8H204.2z M258.1,73.5
	c11.4,16.7,18.2,35.7,20,55.8h-52.4c-0.7-13.3-2.6-26.5-5.9-39.3c13.6-3.9,26-9.2,37-15.8C257.3,74,257.7,73.7,258.1,73.5z
	 M63.1,74.2C73.5,80.4,85.2,85.5,98,89.4c-3.3,13-5.3,26.4-6,39.9h-50c1.8-20.1,8.6-39.1,20-55.8C62.3,73.7,62.7,74,63.1,74.2z
	 M91.9,150.7c0.7,13.6,2.7,26.9,6,39.9c-12.8,3.9-24.4,9-34.8,15.1c-0.4,0.2-0.8,0.5-1.2,0.7c-11.4-16.7-18.2-35.7-20-55.8H91.9z
	 M256.9,205.8c-11-6.5-23.5-11.8-37-15.8c3.2-12.8,5.2-26,5.9-39.3h52.4c-1.8,20-8.6,39.1-20,55.8
	C257.7,206.3,257.3,206,256.9,205.8z"/>
<path class="st1" d="M271.4,55.3c-1.5-1.9-3.1-3.9-4.7-5.9C241.2,19.5,204.2,1.5,165.2,0.1c-0.5,0-1,0-1.6-0.1
	C160.4,0,157.2,0,154,0.1c-0.6,0-1.2,0-1.7,0.1c-38,2.1-74.1,20-98.9,49.2c-1.8,2.1-3.3,4-4.7,5.9C29.9,79.8,20,109.1,20,140
	s9.9,60.2,28.6,84.7c1.4,1.9,3,3.8,4.7,5.9c24.8,29.2,60.9,47.1,98.9,49.2c0.6,0,1.2,0.1,1.8,0.1c2,0.1,4,0.1,6,0.1
	c1.2,0,2.4,0,3.7,0c0.5,0,1,0,1.5-0.1c39-1.4,76-19.4,101.5-49.3c1.7-2,3.3-3.9,4.7-5.9c18.7-24.6,28.6-53.8,28.6-84.7
	C300,109.1,290.1,79.8,271.4,55.3z M190,254.7c9.6-13.4,17.6-28.3,23.5-44.3c11.4,3.3,21.8,7.6,30.8,12.7
	C229.3,238.6,210.5,249.4,190,254.7z M160,203.2c11.1,0,21.9,0.9,32.4,2.5c-7.8,20.1-19.3,38.2-33.4,52.8c-0.1,0-0.1,0-0.2,0
	c-14.1-14.5-25.4-32.5-33.3-52.4C136.6,204.2,148.2,203.2,160,203.2z M75.7,223.2c8.5-4.8,18.2-8.9,28.7-12.1
	c5.8,15.4,13.5,29.8,22.7,42.8C107.7,248.3,90,237.8,75.7,223.2z M127.1,26.1c-9.3,13-16.9,27.4-22.7,42.8
	c-10.5-3.2-20.3-7.3-28.7-12.1C90,42.2,107.7,31.7,127.1,26.1z M158.9,21.4c14.2,14.6,25.6,32.7,33.4,52.8
	c-10.5,1.7-21.3,2.5-32.4,2.5c-11.8,0-23.4-1-34.6-2.9c7.8-19.9,19.2-37.9,33.3-52.4C158.8,21.4,158.9,21.4,158.9,21.4z M244.3,56.8
	c-9,5.1-19.5,9.5-30.8,12.7c-5.9-15.9-13.9-30.9-23.5-44.3C210.5,30.6,229.3,41.4,244.3,56.8z M113.4,129.3
	c0.7-11.9,2.5-23.6,5.4-34.8c13.3,2.5,27.1,3.8,41.2,3.8c13.3,0,26.3-1.1,38.9-3.4c2.8,11.2,4.6,22.7,5.3,34.4H113.4z M204.2,150.7
	c-0.7,11.7-2.4,23.2-5.3,34.4c-12.6-2.2-25.7-3.4-38.9-3.4c-14.1,0-27.9,1.3-41.2,3.8c-2.9-11.3-4.7-23-5.4-34.8H204.2z M258.1,73.5
	c11.4,16.7,18.2,35.7,20,55.8h-52.4c-0.7-13.3-2.6-26.5-5.9-39.3c13.6-3.9,26-9.2,37-15.8C257.3,74,257.7,73.7,258.1,73.5z
	 M63.1,74.2C73.5,80.4,85.2,85.5,98,89.4c-3.3,13-5.3,26.4-6,39.9h-50c1.8-20.1,8.6-39.1,20-55.8C62.3,73.7,62.7,74,63.1,74.2z
	 M91.9,150.7c0.7,13.6,2.7,26.9,6,39.9c-12.8,3.9-24.4,9-34.8,15.1c-0.4,0.2-0.8,0.5-1.2,0.7c-11.4-16.7-18.2-35.7-20-55.8H91.9z
	 M256.9,205.8c-11-6.5-23.5-11.8-37-15.8c3.2-12.8,5.2-26,5.9-39.3h52.4c-1.8,20-8.6,39.1-20,55.8
	C257.7,206.3,257.3,206,256.9,205.8z"/>
</svg>
