<?xml version="1.0" encoding="utf-8"?>
<!-- Generator: Adobe Illustrator 26.3.1, SVG Export Plug-In . SVG Version: 6.00 Build 0)  -->
<svg version="1.1" xmlns="http://www.w3.org/2000/svg" xmlns:xlink="http://www.w3.org/1999/xlink" x="0px" y="0px"
	 viewBox="0 0 320 280" style="enable-background:new 0 0 320 280;" xml:space="preserve">
<style type="text/css">
	.st0{fill:#FDFDFD;}
	.st1{fill:none;stroke:#FDFDFD;stroke-width:2.1202;stroke-linecap:round;stroke-linejoin:round;stroke-miterlimit:10;}
	.st2{display:none;}
	.st3{display:inline;}
	.st4{fill:#1E1E1E;}
	.st5{fill:none;stroke:#1E1E1E;stroke-width:3.9825;stroke-linecap:round;stroke-linejoin:round;stroke-miterlimit:10;}
</style>
<g id="Layer_1">
	<g>
		<path class="st0" d="M183.8,192.2c-42.2,0-76.5-34.2-76.5-76.5c0-16.1,5-31,13.5-43.4c-22.4,13.3-37.4,37.8-37.4,65.8
			c0,42.2,34.2,76.5,76.5,76.5c26.1,0,49.2-13.1,63-33.1C211.4,188.3,198,192.2,183.8,192.2z"/>
	</g>
	<g>
		<g>
			<circle class="st0" cx="189.8" cy="105.2" r="21.2"/>
		</g>
		<line class="st1" x1="189.8" y1="81.3" x2="189.8" y2="72.2"/>
		<line class="st1" x1="189.8" y1="81.3" x2="189.8" y2="72.2"/>
		<line class="st1" x1="177.9" y1="84.5" x2="173.3" y2="76.6"/>
		<line class="st1" x1="169.1" y1="93.2" x2="161.2" y2="88.7"/>
		<line class="st1" x1="165.9" y1="105.2" x2="156.8" y2="105.2"/>
		<line class="st1" x1="169.1" y1="117.1" x2="161.2" y2="121.7"/>
		<line class="st1" x1="177.9" y1="125.9" x2="173.3" y2="133.8"/>
		<line class="st1" x1="189.8" y1="129.1" x2="189.8" y2="138.2"/>
		<line class="st1" x1="201.8" y1="125.9" x2="206.3" y2="133.8"/>
		<line class="st1" x1="210.5" y1="117.1" x2="218.4" y2="121.7"/>
		<line class="st1" x1="213.7" y1="105.2" x2="222.8" y2="105.2"/>
		<line class="st1" x1="210.5" y1="93.2" x2="218.4" y2="88.7"/>
		<line class="st1" x1="201.8" y1="84.5" x2="206.3" y2="76.6"/>
	</g>
</g>
<g id="Layer_2" class="st2">
	<g class="st3">
		<g>
			<g>
				<circle class="st4" cx="142" cy="160" r="39.8"/>
			</g>
			<line class="st5" x1="142" y1="115" x2="142" y2="97.9"/>
			<g>
				<circle class="st4" cx="142" cy="160" r="39.8"/>
			</g>
			<line class="st5" x1="142" y1="115" x2="142" y2="97.9"/>
			<line class="st5" x1="119.5" y1="121.1" x2="110.9" y2="106.3"/>
			<line class="st5" x1="103" y1="137.5" x2="88.2" y2="129"/>
			<line class="st5" x1="97" y1="160" x2="79.9" y2="160"/>
			<line class="st5" x1="103" y1="182.4" x2="88.2" y2="191"/>
			<line class="st5" x1="119.5" y1="198.9" x2="110.9" y2="213.7"/>
			<line class="st5" x1="142" y1="204.9" x2="142" y2="222"/>
			<line class="st5" x1="164.4" y1="198.9" x2="173" y2="213.7"/>
			<line class="st5" x1="180.9" y1="182.4" x2="195.7" y2="191"/>
			<line class="st5" x1="186.9" y1="160" x2="204" y2="160"/>
			<line class="st5" x1="180.9" y1="137.5" x2="195.7" y2="129"/>
			<line class="st5" x1="164.4" y1="121.1" x2="173" y2="106.3"/>
		</g>
		<g>
			<path class="st4" d="M224.9,104.6c-16.4,0-29.7-13.3-29.7-29.7c0-6.3,1.9-12.1,5.2-16.9c-8.7,5.2-14.5,14.7-14.5,25.6
				c0,16.4,13.3,29.7,29.7,29.7c10.2,0,19.1-5.1,24.5-12.9C235.6,103.1,230.4,104.6,224.9,104.6z"/>
		</g>
	</g>
</g>
<g id="Layer_3" class="st2">
</g>
</svg>
